{"title":"Deep Water - S01E04","uid":16042803,"size":441941288,"categoryP":"video","categoryS":"tv_shows","magnet":"?xt=urn:btih:cd43ae58ca82451293265dfd1d6f3b9bd1017a75&amp;dn=Deep+Water+-+S01E04&amp;tr=udp%3A%2F%2Ftracker.leechers-paradise.org%3A6969&amp;tr=udp%3A%2F%2Fzer0day.ch%3A1337&amp;tr=udp%3A%2F%2Fopen.demonii.com%3A1337&amp;tr=udp%3A%2F%2Ftracker.coppersurfer.tk%3A6969&amp;tr=udp%3A%2F%2Fexodus.desync.com%3A6969","seeders":15,"leechers":6,"uploader":"Bullrout","files":1,"time":1476531512,"description":"Deep Water - S01E04\r\n\r\nWith Oscar surviving a brutal attack, Nick and Tori desperately reach back into the past and discover a vital lead previously masked by some very dodgy detective work.\r\n\r\n\r\nComplete name                            : Deep Water - S01E04.mp4\r\nFormat                                   : MPEG-4\r\nFormat profile                           : Base Media / Version 2\r\nCodec ID                                 : mp42 (mp42/isom/avc1)\r\nFile size                                : 421 MiB\r\nDuration                                 : 53 min 12 s\r\nOverall bit rate mode                    : Variable\r\nOverall bit rate                         : 1 107 kb/s\r\n\r\nVideo\r\nID                                       : 2\r\nFormat                                   : AVC\r\nFormat/Info                              : Advanced Video Codec\r\nFormat profile                           :   \r\nFormat settings, CABAC                   : Yes\r\nFormat settings, ReFrames                : 3 frames\r\nCodec ID                                 : avc1\r\nCodec ID/Info                            : Advanced Video Coding\r\nDuration                                 : 53 min 12 s\r\nBit rate mode                            : Variable\r\nBit rate                                 : 976 kb/s\r\nMaximum bit rate                         : 1 000 kb/s\r\nWidth                                    : 720 pixels\r\nHeight                                   : 404 pixels\r\nDisplay aspect ratio                     : 16:9\r\nOriginal display aspect ratio            : 16:9\r\nFrame rate mode                          : Constant\r\nFrame rate                               : 25.000 FPS\r\nStandard                                 : PAL\r\nColor space                              : YUV\r\nChroma subsampling                       : 4:2:0\r\nBit depth                                : 8 bits\r\nScan type                                : Progressive\r\nBits/(Pixel*Frame)                       : 0.134\r\nStream size                              : 371 MiB (88%)\r\nWriting library                          : x264 core 112\r\nColor range                              : Limited\r\nColor primaries                          : BT.601 PAL\r\nTransfer characteristics                 : BT.470 System B, BT.470 System G\r\nMatrix coefficients                      : BT.601\r\n\r\nAudio\r\nID                                       : 1\r\nFormat                                   : AAC\r\nFormat/Info                              : Advanced Audio Codec\r\nFormat profile                           : LC\r\nCodec ID                                 : 40\r\nDuration                                 : 53 min 12 s\r\nBit rate mode                            : Variable\r\nBit rate                                 : 128 kb/s\r\nMaximum bit rate                         : 576 kb/s\r\nChannel(s)                               : 2 channels\r\nChannel positions                        : Front: L R\r\nSampling rate                            : 48.0 kHz\r\nFrame rate                               : 46.875 FPS (1024 spf)\r\nCompression mode                         : Lossy\r\nStream size                              : 48.7 MiB (12%)","torrent":{"xt":"urn:btih:cd43ae58ca82451293265dfd1d6f3b9bd1017a75","amp;dn":"Deep+Water+-+S01E04","amp;tr":["udp%3A%2F%2Ftracker.leechers-paradise.org%3A6969","udp%3A%2F%2Fzer0day.ch%3A1337","udp%3A%2F%2Fopen.demonii.com%3A1337","udp%3A%2F%2Ftracker.coppersurfer.tk%3A6969","udp%3A%2F%2Fexodus.desync.com%3A6969"],"infoHash":"cd43ae58ca82451293265dfd1d6f3b9bd1017a75","infoHashBuffer":{"type":"Buffer","data":[205,67,174,88,202,130,69,18,147,38,93,253,29,111,59,155,209,1,122,117]},"announce":[],"urlList":[]}}